<svg version="1.0" xmlns="http://www.w3.org/2000/svg"
 width="637" height="652" viewBox="193 186 637 652">
<g transform="translate(0,1024) scale(0.1,-0.1)" fill="#FF5100" stroke="none">
<path d="M4996 8263 c-41 -144 -80 -254 -92 -264 -9 -7 -62 -21 -118 -30 -80
-14 -106 -15 -126 -5 -14 6 -61 59 -105 117 l-81 106 -74 -22 c-100 -31 -133
-44 -142 -58 -4 -7 -8 -73 -8 -148 0 -117 -2 -138 -17 -151 -30 -26 -178 -98
-202 -98 -13 0 -70 32 -128 71 -57 38 -111 73 -118 75 -14 6 -149 -81 -178
-114 -13 -15 -10 -31 30 -150 24 -74 41 -142 38 -151 -10 -32 -161 -171 -186
-171 -17 0 -165 42 -266 75 -12 4 -94 -93 -128 -152 l-18 -31 65 -84 c77 -99
108 -147 108 -170 0 -30 -78 -186 -99 -197 -11 -6 -80 -11 -159 -11 l-140 0
-20 -57 c-12 -32 -28 -80 -37 -107 -18 -56 -29 -42 103 -132 82 -56 132 -105
132 -127 0 -7 -7 -52 -15 -102 -11 -72 -19 -93 -36 -105 -12 -8 -76 -32 -143
-53 -66 -21 -122 -39 -124 -42 -8 -7 -2 -219 6 -226 4 -4 64 -25 134 -48 69
-23 132 -48 138 -56 14 -17 41 -200 33 -222 -3 -8 -44 -43 -92 -78 -47 -35
-100 -75 -118 -90 l-32 -26 16 -52 c8 -29 24 -76 35 -104 l19 -53 140 0 c78 0
149 -5 160 -10 19 -11 85 -130 100 -184 10 -35 7 -42 -89 -174 l-74 -104 46
-66 c25 -37 54 -78 65 -91 l19 -25 134 42 c74 23 144 42 157 42 25 0 114 -80
156 -139 l26 -39 -46 -141 -46 -141 28 -24 c46 -39 119 -93 139 -104 20 -11
27 -7 175 99 90 65 99 65 194 18 123 -62 118 -54 116 -211 -1 -74 1 -142 5
-151 5 -15 172 -77 208 -77 7 0 48 47 90 104 111 151 96 142 218 122 56 -10
109 -21 119 -26 19 -11 27 -29 70 -170 18 -58 39 -110 46 -117 8 -6 39 -10 71
-9 31 2 80 4 109 4 l51 2 42 128 c47 140 64 173 126 247 52 63 112 96 236 129
172 47 414 155 555 248 92 61 279 217 354 295 259 271 438 617 515 994 25 123
28 153 28 364 0 198 -3 247 -23 355 -76 411 -258 757 -551 1051 -263 263 -518
412 -879 514 -120 33 -176 62 -230 117 -68 71 -111 164 -161 346 l-11 42 -119
0 c-104 0 -119 -2 -124 -17z m219 -593 c10 -16 -15 -1201 -26 -1222 -29 -54
-107 -60 -133 -10 -11 21 -16 140 -25 548 -6 286 -11 559 -11 607 l0 87 94 0
c52 0 98 -4 101 -10z m-387 -50 c21 -13 41 -38 54 -68 l21 -47 -17 -300 c-26
-442 -46 -736 -52 -766 -8 -38 -62 -99 -100 -115 -48 -20 -102 -17 -191 10
-43 13 -141 43 -218 65 -162 49 -375 114 -560 173 -112 35 -135 46 -167 79
-60 62 -55 121 20 232 60 90 226 281 293 338 224 190 484 330 731 394 115 30
144 30 186 5z m755 -1 c392 -100 738 -334 992 -670 93 -124 119 -177 110 -225
-7 -40 -58 -102 -94 -116 -55 -21 -829 -258 -936 -287 -58 -16 -104 -13 -151
8 -39 18 -84 65 -97 104 -8 20 -28 323 -53 768 l-17 306 22 46 c25 51 71 87
114 87 16 0 65 -9 110 -21z m-1913 -1151 c102 -38 237 -89 300 -113 578 -218
625 -237 641 -267 15 -27 2 -86 -21 -98 -10 -5 -34 -10 -53 -10 -19 0 -255 75
-523 166 -662 224 -634 214 -634 228 0 20 31 118 47 149 17 33 -3 38 243 -55z
m3155 27 c14 -30 28 -73 31 -94 l6 -39 -57 -21 c-32 -12 -293 -101 -579 -197
-473 -158 -524 -174 -553 -164 -41 15 -60 58 -43 99 9 22 28 36 78 59 79 35
1069 409 1090 412 2 0 14 -25 27 -55z m-3188 -361 c76 -30 221 -91 323 -134
102 -43 257 -108 345 -145 88 -37 171 -76 185 -87 73 -57 91 -157 44 -251 -14
-29 -54 -95 -89 -147 -34 -52 -96 -147 -137 -210 -244 -376 -327 -498 -352
-518 -32 -25 -85 -37 -121 -28 -51 13 -148 124 -267 306 -111 171 -216 467
-247 695 -16 113 -21 316 -11 409 10 89 27 121 81 148 55 29 98 22 246 -38z
m3212 38 c58 -29 71 -57 82 -173 22 -224 -22 -552 -103 -759 -68 -175 -201
-406 -306 -530 -66 -78 -96 -100 -140 -100 -74 0 -121 42 -224 200 -19 30 -69
107 -110 170 -233 357 -323 499 -344 538 -46 87 -26 194 48 251 25 20 153 75
703 302 132 55 249 104 260 109 33 15 98 11 134 -8z m-1600 -41 c57 -30 107
-83 138 -150 22 -46 25 -63 21 -130 -6 -94 -29 -142 -98 -205 -110 -98 -265
-101 -374 -5 -72 63 -99 117 -104 209 -5 85 12 138 65 205 77 98 239 133 352
76z m-426 -713 c36 -43 26 -64 -180 -370 -203 -303 -251 -373 -386 -568 -115
-165 -100 -154 -155 -120 -26 16 -62 42 -81 58 l-34 28 44 65 c115 166 626
845 676 897 36 38 46 44 70 38 15 -4 36 -16 46 -28z m673 22 c31 -11 59 -47
475 -605 292 -391 285 -380 268 -401 -11 -14 -94 -73 -136 -97 -16 -10 -101
111 -515 726 -119 177 -188 288 -188 303 0 34 17 63 43 74 12 5 22 9 23 9 1 1
14 -4 30 -9z m-278 -202 c21 -14 69 -66 108 -116 38 -49 130 -168 204 -263
359 -459 368 -471 377 -522 4 -25 -1 -48 -16 -80 -19 -38 -31 -48 -89 -75
-287 -130 -694 -165 -1057 -92 -161 33 -340 97 -373 134 -31 34 -45 89 -33
133 6 23 52 91 113 170 57 72 155 198 218 279 63 81 150 192 194 248 98 127
153 184 191 202 43 21 117 12 163 -18z"/>
<path d="M5395 8228 c12 -63 47 -163 71 -205 32 -55 69 -76 200 -112 360 -98
661 -269 922 -523 260 -253 417 -505 541 -865 260 -757 43 -1623 -550 -2188
-118 -113 -159 -146 -284 -229 -179 -120 -419 -229 -630 -287 -113 -30 -147
-51 -183 -106 -32 -50 -82 -186 -82 -222 0 -27 14 -27 160 0 287 51 555 151
800 299 136 81 182 114 315 226 645 540 965 1402 829 2234 -68 417 -244 812
-511 1145 -85 106 -283 303 -380 377 -257 198 -548 344 -835 422 -121 32 -298
66 -349 66 -40 0 -41 0 -34 -32z"/>
</g>
<g transform="translate(0,1024) scale(0.1,-0.1)" fill="#3D3D3D" stroke="none">
<path d="M7222 3061 c-55 -14 -109 -59 -137 -114 -20 -41 -25 -65 -25 -129 l0
-78 -75 0 -75 0 0 -45 0 -44 73 -3 72 -3 3 -342 2 -343 55 0 55 0 0 345 0 344
118 3 117 3 0 40 0 40 -119 3 -118 3 3 85 c4 81 6 87 35 114 41 36 97 46 155
26 24 -9 49 -16 56 -16 11 0 39 67 31 74 -37 33 -162 53 -226 37z"/>
<path d="M6641 3043 c-32 -27 -37 -73 -11 -106 17 -22 30 -27 64 -27 66 0 101
53 72 108 -24 46 -85 58 -125 25z"/>
<path d="M2436 3004 c-162 -39 -283 -138 -357 -289 -41 -86 -43 -94 -47 -201
-4 -95 -1 -123 19 -189 77 -262 333 -412 636 -375 104 13 204 46 279 91 l54
33 0 213 0 213 -110 0 -110 0 0 -151 0 -150 -37 -15 c-182 -77 -389 -4 -467
165 -30 66 -30 206 0 272 95 206 382 262 556 110 l33 -28 80 74 80 74 -40 34
c-57 49 -162 102 -236 120 -80 19 -254 18 -333 -1z"/>
<path d="M5800 2484 l0 -524 345 0 345 0 0 45 0 45 -67 1 c-38 1 -149 1 -248
1 -99 -1 -199 1 -222 4 l-43 5 -2 472 -3 471 -52 2 -53 3 0 -525z"/>
<path d="M3465 2753 c-109 -39 -191 -106 -235 -193 -100 -196 -39 -434 138
-540 85 -50 163 -70 272 -70 136 0 244 36 313 106 l28 28 -67 67 -67 67 -21
-20 c-65 -63 -208 -81 -300 -37 -50 23 -106 87 -106 121 0 17 15 18 305 18
l305 0 0 58 c0 117 -50 243 -123 309 -22 19 -69 49 -106 66 -59 29 -77 32
-176 35 -86 2 -121 -2 -160 -15z m259 -190 c39 -28 67 -66 81 -110 l6 -23
-195 0 -196 0 0 23 c0 29 50 101 82 118 71 38 161 35 222 -8z"/>
<path d="M4335 2751 c-59 -17 -165 -66 -165 -76 0 -8 61 -128 72 -142 7 -8 26
-3 75 19 123 58 273 48 323 -22 11 -16 23 -42 26 -58 l6 -29 -154 -6 c-170 -6
-231 -20 -296 -67 -59 -42 -86 -99 -86 -181 0 -53 5 -74 27 -112 49 -83 143
-127 272 -127 93 0 161 21 213 66 l42 36 0 -46 0 -46 105 0 105 0 0 267 c0
331 -6 360 -90 445 -47 46 -68 60 -124 77 -88 27 -261 28 -351 2z m335 -500
c0 -88 -69 -141 -185 -141 -60 0 -69 3 -96 29 -35 35 -38 77 -8 115 27 35 65
44 187 45 l102 1 0 -49z"/>
<path d="M5479 2754 c-25 -7 -66 -32 -91 -54 -26 -22 -49 -40 -52 -40 -3 0 -6
23 -6 50 l0 50 -110 0 -110 0 0 -400 0 -400 118 0 117 0 1 213 c0 145 4 224
13 250 29 86 104 136 204 137 l57 0 0 105 0 105 -47 -1 c-27 0 -69 -7 -94 -15z"/>
<path d="M7730 2734 c-109 -29 -199 -106 -248 -212 -24 -51 -27 -69 -27 -167
0 -103 2 -114 31 -175 60 -125 169 -201 315 -222 122 -16 262 23 337 95 l32
31 -32 33 -31 32 -31 -26 c-61 -51 -124 -73 -212 -73 -70 0 -89 4 -142 30 -88
44 -153 127 -164 210 l-3 25 328 3 327 2 0 54 c0 250 -235 426 -480 360z m220
-106 c25 -10 58 -31 74 -46 34 -32 76 -116 76 -154 l0 -28 -271 0 -271 0 7 37
c10 56 39 105 85 147 82 74 193 90 300 44z"/>
<path d="M6640 2350 l0 -390 55 0 55 0 0 390 0 390 -55 0 -55 0 0 -390z"/>
</g>
</svg>