<svg width="264" height="31" viewBox="0 0 264 31" fill="none" xmlns="http://www.w3.org/2000/svg">
<path d="M10.3016 30.4C8.24823 30.4 6.46156 30.0533 4.94156 29.36C3.42156 28.6667 2.24823 27.6933 1.42156 26.44C0.594893 25.1867 0.18156 23.7067 0.18156 22H6.18156C6.18156 22.9867 6.55489 23.7733 7.30156 24.36C8.07489 24.92 9.11489 25.2 10.4216 25.2C11.6749 25.2 12.6482 24.92 13.3416 24.36C14.0616 23.8 14.4216 23.0267 14.4216 22.04C14.4216 21.1867 14.1549 20.4533 13.6216 19.84C13.0882 19.2267 12.3416 18.8133 11.3816 18.6L8.42156 17.92C5.94156 17.3333 4.00823 16.2533 2.62156 14.68C1.26156 13.08 0.58156 11.1333 0.58156 8.84C0.58156 7.13333 0.968226 5.65333 1.74156 4.4C2.54156 3.12 3.66156 2.13333 5.10156 1.44C6.54156 0.746666 8.24823 0.4 10.2216 0.4C13.2082 0.4 15.5682 1.14667 17.3016 2.64C19.0616 4.10667 19.9416 6.09333 19.9416 8.6H13.9416C13.9416 7.66666 13.6082 6.93333 12.9416 6.4C12.3016 5.86667 11.3682 5.6 10.1416 5.6C8.99489 5.6 8.11489 5.86667 7.50156 6.4C6.88823 6.90667 6.58156 7.64 6.58156 8.6C6.58156 9.45333 6.82156 10.1867 7.30156 10.8C7.80823 11.3867 8.51489 11.7867 9.42156 12L12.5416 12.72C15.1282 13.3067 17.0882 14.3733 18.4216 15.92C19.7549 17.44 20.4216 19.3867 20.4216 21.76C20.4216 23.4667 19.9949 24.9733 19.1416 26.28C18.3149 27.5867 17.1416 28.6 15.6216 29.32C14.1282 30.04 12.3549 30.4 10.3016 30.4ZM33.4859 30C31.2459 30 29.4859 29.36 28.2059 28.08C26.9259 26.8 26.2859 25.04 26.2859 22.8V13.4H20.4859V8H26.2859V1.8H32.2859V8H40.4859V13.4H32.2859V22.8C32.2859 24 32.8859 24.6 34.0859 24.6H40.0859V30H33.4859ZM43.1503 30V8H48.7503V12.2H50.2703L48.5503 14.76C48.5503 12.3867 49.097 10.6 50.1903 9.4C51.2836 8.2 52.8836 7.6 54.9903 7.6C57.417 7.6 59.297 8.33333 60.6303 9.8C61.9903 11.2667 62.6703 13.3333 62.6703 16V17.8H56.2703V16.4C56.2703 15.2 55.937 14.2667 55.2703 13.6C54.6303 12.9333 53.7636 12.6 52.6703 12.6C51.5236 12.6 50.6436 12.9333 50.0303 13.6C49.4436 14.2667 49.1503 15.2 49.1503 16.4V30H43.1503ZM69.8147 30.4C67.6014 30.4 65.8414 29.8 64.5347 28.6C63.2547 27.4 62.6147 25.7733 62.6147 23.72C62.6147 21.5067 63.3747 19.8133 64.8947 18.64C66.4414 17.44 68.6547 16.84 71.5347 16.84H76.0947V15.2C76.0947 14.3467 75.788 13.6667 75.1747 13.16C74.588 12.6533 73.788 12.4 72.7747 12.4C71.8414 12.4 71.068 12.6133 70.4547 13.04C69.8414 13.4667 69.468 14.0533 69.3347 14.8H63.5347C63.7747 12.5867 64.7347 10.84 66.4147 9.56C68.1214 8.25333 70.308 7.6 72.9747 7.6C75.7747 7.6 77.988 8.29333 79.6147 9.68C81.268 11.04 82.0947 12.88 82.0947 15.2V30H76.2947V26.4H75.3347L76.3347 25C76.3347 26.6533 75.7347 27.9733 74.5347 28.96C73.3614 29.92 71.788 30.4 69.8147 30.4ZM72.0547 26C73.228 26 74.188 25.6933 74.9347 25.08C75.708 24.44 76.0947 23.6133 76.0947 22.6V20.24H71.6547C70.748 20.24 70.0147 20.5067 69.4547 21.04C68.8947 21.5467 68.6147 22.2267 68.6147 23.08C68.6147 23.9867 68.9214 24.7067 69.5347 25.24C70.148 25.7467 70.988 26 72.0547 26ZM89.7191 30L82.5191 8H88.7191L92.3991 20.36C92.6124 21.1067 92.8257 21.92 93.0391 22.8C93.2524 23.68 93.4124 24.3867 93.5191 24.92C93.6524 24.3867 93.8124 23.68 93.9991 22.8C94.2124 21.92 94.4124 21.12 94.5991 20.4L98.2391 8H104.359L97.2391 30H89.7191ZM111.383 30.4C109.17 30.4 107.41 29.8 106.103 28.6C104.823 27.4 104.183 25.7733 104.183 23.72C104.183 21.5067 104.943 19.8133 106.463 18.64C108.01 17.44 110.223 16.84 113.103 16.84H117.663V15.2C117.663 14.3467 117.357 13.6667 116.743 13.16C116.157 12.6533 115.357 12.4 114.343 12.4C113.41 12.4 112.637 12.6133 112.023 13.04C111.41 13.4667 111.037 14.0533 110.903 14.8H105.103C105.343 12.5867 106.303 10.84 107.983 9.56C109.69 8.25333 111.877 7.6 114.543 7.6C117.343 7.6 119.557 8.29333 121.183 9.68C122.837 11.04 123.663 12.88 123.663 15.2V30H117.863V26.4H116.903L117.903 25C117.903 26.6533 117.303 27.9733 116.103 28.96C114.93 29.92 113.357 30.4 111.383 30.4ZM113.623 26C114.797 26 115.757 25.6933 116.503 25.08C117.277 24.44 117.663 23.6133 117.663 22.6V20.24H113.223C112.317 20.24 111.583 20.5067 111.023 21.04C110.463 21.5467 110.183 22.2267 110.183 23.08C110.183 23.9867 110.49 24.7067 111.103 25.24C111.717 25.7467 112.557 26 113.623 26ZM155.792 30.4C153.739 30.4 151.952 30.0533 150.432 29.36C148.912 28.6667 147.739 27.6933 146.912 26.44C146.086 25.1867 145.672 23.7067 145.672 22H151.672C151.672 22.9867 152.046 23.7733 152.792 24.36C153.566 24.92 154.606 25.2 155.912 25.2C157.166 25.2 158.139 24.92 158.832 24.36C159.552 23.8 159.912 23.0267 159.912 22.04C159.912 21.1867 159.646 20.4533 159.112 19.84C158.579 19.2267 157.832 18.8133 156.872 18.6L153.912 17.92C151.432 17.3333 149.499 16.2533 148.112 14.68C146.752 13.08 146.072 11.1333 146.072 8.84C146.072 7.13333 146.459 5.65333 147.232 4.4C148.032 3.12 149.152 2.13333 150.592 1.44C152.032 0.746666 153.739 0.4 155.712 0.4C158.699 0.4 161.059 1.14667 162.792 2.64C164.552 4.10667 165.432 6.09333 165.432 8.6H159.432C159.432 7.66666 159.099 6.93333 158.432 6.4C157.792 5.86667 156.859 5.6 155.632 5.6C154.486 5.6 153.606 5.86667 152.992 6.4C152.379 6.90667 152.072 7.64 152.072 8.6C152.072 9.45333 152.312 10.1867 152.792 10.8C153.299 11.3867 154.006 11.7867 154.912 12L158.032 12.72C160.619 13.3067 162.579 14.3733 163.912 15.92C165.246 17.44 165.912 19.3867 165.912 21.76C165.912 23.4667 165.486 24.9733 164.632 26.28C163.806 27.5867 162.632 28.6 161.112 29.32C159.619 30.04 157.846 30.4 155.792 30.4ZM178.977 30C176.737 30 174.977 29.36 173.697 28.08C172.417 26.8 171.777 25.04 171.777 22.8V13.4H165.977V8H171.777V1.8H177.777V8H185.977V13.4H177.777V22.8C177.777 24 178.377 24.6 179.577 24.6H185.577V30H178.977ZM194.521 30.4C192.308 30.4 190.548 29.8 189.241 28.6C187.961 27.4 187.321 25.7733 187.321 23.72C187.321 21.5067 188.081 19.8133 189.601 18.64C191.148 17.44 193.361 16.84 196.241 16.84H200.801V15.2C200.801 14.3467 200.494 13.6667 199.881 13.16C199.294 12.6533 198.494 12.4 197.481 12.4C196.548 12.4 195.774 12.6133 195.161 13.04C194.548 13.4667 194.174 14.0533 194.041 14.8H188.241C188.481 12.5867 189.441 10.84 191.121 9.56C192.828 8.25333 195.014 7.6 197.681 7.6C200.481 7.6 202.694 8.29333 204.321 9.68C205.974 11.04 206.801 12.88 206.801 15.2V30H201.001V26.4H200.041L201.041 25C201.041 26.6533 200.441 27.9733 199.241 28.96C198.068 29.92 196.494 30.4 194.521 30.4ZM196.761 26C197.934 26 198.894 25.6933 199.641 25.08C200.414 24.44 200.801 23.6133 200.801 22.6V20.24H196.361C195.454 20.24 194.721 20.5067 194.161 21.04C193.601 21.5467 193.321 22.2267 193.321 23.08C193.321 23.9867 193.628 24.7067 194.241 25.24C194.854 25.7467 195.694 26 196.761 26ZM220.545 30C218.305 30 216.545 29.36 215.265 28.08C213.985 26.8 213.345 25.04 213.345 22.8V13.4H207.545V8H213.345V1.8H219.345V8H227.545V13.4H219.345V22.8C219.345 24 219.945 24.6 221.145 24.6H227.145V30H220.545ZM238.01 30.4C236.196 30.4 234.61 30.12 233.25 29.56C231.89 28.9733 230.823 28.1733 230.05 27.16C229.303 26.1467 228.93 24.96 228.93 23.6H234.93C234.93 24.24 235.21 24.76 235.77 25.16C236.356 25.5333 237.103 25.72 238.01 25.72H239.77C240.863 25.72 241.69 25.52 242.25 25.12C242.836 24.72 243.13 24.16 243.13 23.44C243.13 22.7733 242.876 22.2667 242.37 21.92C241.863 21.5467 241.076 21.2933 240.01 21.16L237.45 20.84C234.703 20.4933 232.703 19.8267 231.45 18.84C230.196 17.8533 229.57 16.3467 229.57 14.32C229.57 12.1867 230.303 10.5333 231.77 9.36C233.236 8.18667 235.383 7.6 238.21 7.6H239.73C242.423 7.6 244.57 8.18667 246.17 9.36C247.77 10.5333 248.57 12.1067 248.57 14.08H242.57C242.57 13.5467 242.303 13.12 241.77 12.8C241.263 12.4533 240.583 12.28 239.73 12.28H238.21C237.223 12.28 236.503 12.4533 236.05 12.8C235.596 13.12 235.37 13.6133 235.37 14.28C235.37 14.8933 235.57 15.36 235.97 15.68C236.396 16 237.063 16.2267 237.97 16.36L240.73 16.72C243.503 17.0667 245.556 17.76 246.89 18.8C248.25 19.84 248.93 21.3867 248.93 23.44C248.93 25.68 248.156 27.4 246.61 28.6C245.063 29.8 242.783 30.4 239.77 30.4H238.01ZM259.714 30.4C258.487 30.4 257.501 30.04 256.754 29.32C256.034 28.5733 255.674 27.5867 255.674 26.36C255.674 25.1067 256.034 24.12 256.754 23.4C257.501 22.68 258.487 22.32 259.714 22.32C260.967 22.32 261.954 22.68 262.674 23.4C263.394 24.12 263.754 25.1067 263.754 26.36C263.754 27.5867 263.394 28.5733 262.674 29.32C261.954 30.04 260.967 30.4 259.714 30.4Z" fill="url(#paint0_linear_32_2)"/>
<defs>
<linearGradient id="paint0_linear_32_2" x1="135" y1="-4" x2="135" y2="36" gradientUnits="userSpaceOnUse">
<stop stop-color="#FF4D4D"/>
<stop offset="1" stop-color="#F9CB28" stop-opacity="0.87"/>
</linearGradient>
</defs>
</svg>
