<svg xmlns="http://www.w3.org/2000/svg" version="1.1" width="90" height="90" viewBox="0 0 87 87" fill="none">

<g><path d="M87 43.8564C87 42.9942 86.3294 42.3236 85.4672 42.3236C85.3714 42.3236 85.3714 42.3236 85.2756 42.3236C85.2756 41.8446 85.2756 41.2698 85.1798 40.7908C85.2756 40.7908 85.2756 40.7908 85.3714 40.7908C86.2336 40.695 86.8084 39.9286 86.7126 39.0664C86.521 37.4378 86.2336 35.905 85.9462 34.2764C85.7546 33.4142 84.8924 32.9352 84.0302 33.1268C83.9344 33.1268 83.9344 33.1268 83.8386 33.2226C83.7428 32.7436 83.5512 32.2646 83.4554 31.7856C83.5512 31.7856 83.5512 31.7856 83.647 31.7856C84.5092 31.4982 84.8924 30.636 84.605 29.7738C84.0302 28.241 83.4554 26.804 82.7848 25.2712C82.4016 24.5048 81.4436 24.1216 80.6772 24.5048C80.5814 24.5048 80.5814 24.6006 80.5814 24.6006C80.294 24.1216 80.1024 23.7384 79.815 23.2594C79.9108 23.2594 79.9108 23.1636 80.0066 23.1636C80.773 22.6846 80.9646 21.7266 80.4856 20.9602C79.6234 19.619 78.6654 18.2778 77.7074 17.0324C77.1327 16.3618 76.1747 16.266 75.5041 16.745L75.4082 16.8408C75.0251 16.4576 74.7377 16.0744 74.3545 15.6912L74.4503 15.5954C75.0251 15.0206 75.0251 13.9668 74.4503 13.392C73.3007 12.2425 72.0553 11.1887 70.8099 10.1349C70.1393 9.56006 69.1813 9.75166 68.6065 10.4223C68.6065 10.4223 68.5107 10.5181 68.5107 10.6139C68.1275 10.3265 67.6485 10.0391 67.2653 9.75166L67.3611 9.65586C67.8401 8.88946 67.5527 7.93146 66.8821 7.45246C65.5409 6.59027 64.1039 5.82387 62.6669 5.15327C61.9005 4.77007 60.9425 5.15327 60.5593 5.91967C60.5593 6.01547 60.5593 6.01547 60.4635 6.11127C59.9845 5.91967 59.5055 5.72807 59.0265 5.53647C59.0265 5.44067 59.0265 5.44067 59.1223 5.34487C59.4097 4.48267 58.9307 3.62048 58.1643 3.33308C56.6315 2.75828 55.0987 2.37508 53.4701 1.99188C52.6079 1.80028 51.7457 2.37508 51.5541 3.14148C51.5541 3.23728 51.5541 3.23728 51.5541 3.33308C51.0751 3.23728 50.5003 3.14148 50.0213 3.04568C50.0213 2.94988 50.0213 2.94988 50.0213 2.85408C50.1171 1.99188 49.5423 1.22548 48.6801 1.12968C47.0515 0.938085 45.5187 0.842285 43.8901 0.842285H43.7943C42.9321 0.842285 42.2616 1.51288 42.2616 2.37508C42.2616 2.47088 42.2616 2.47088 42.2616 2.56668C41.7826 2.56668 41.2078 2.56668 40.7288 2.66248C40.7288 2.56668 40.7288 2.56668 40.7288 2.47088C40.633 1.60868 39.8666 1.03388 39.0044 1.12968C37.3758 1.32128 35.843 1.60868 34.2144 1.89608C33.3522 2.08768 32.8732 2.94988 33.0648 3.81208C33.0648 3.90788 33.0648 3.90788 33.1606 4.00368C32.6816 4.09948 32.2026 4.29107 31.7236 4.38687C31.7236 4.29107 31.7236 4.29107 31.7236 4.19527C31.4362 3.33308 30.574 2.94988 29.7118 3.23728C28.179 3.81208 26.742 4.38687 25.2092 5.05747C24.4428 5.44067 24.0596 6.39867 24.4428 7.16507C24.4428 7.26087 24.5386 7.26087 24.5386 7.35667C24.0596 7.64406 23.6764 7.83566 23.1974 8.12306C23.1974 8.02726 23.1974 8.02726 23.1016 7.93146C22.6226 7.16507 21.6646 6.97347 20.8982 7.45246C19.557 8.31466 18.2158 9.27266 16.9704 10.2307C16.2998 10.8055 16.204 11.7635 16.683 12.4341L16.7788 12.5299C16.3956 12.913 16.0124 13.2004 15.6292 13.5836L15.5334 13.4878C14.9586 12.913 13.9048 12.913 13.33 13.4878C12.1804 14.6374 11.1266 15.8828 10.0728 17.1282C9.49805 17.7988 9.68965 18.7568 10.3602 19.3316L10.456 19.4274C10.1686 19.8106 9.88125 20.2896 9.59385 20.6728L9.49805 20.577C8.73165 20.098 7.77365 20.3854 7.29465 21.056C6.43246 22.3972 5.66606 23.8342 4.99546 25.2712C4.61226 26.0376 4.99546 26.9956 5.76186 27.3788C5.85766 27.3788 5.85766 27.3788 5.95346 27.4746C5.76186 27.9536 5.57026 28.4326 5.37866 28.9116C5.28286 28.9116 5.28286 28.8158 5.18706 28.8158C4.32486 28.5284 3.46267 29.0074 3.17527 29.7738C2.60047 31.3066 2.21727 32.8394 1.83407 34.468C1.64247 35.3302 2.21727 36.1924 2.98367 36.384C3.07947 36.384 3.07947 36.384 3.17527 36.384C3.07947 36.863 2.98367 37.4378 2.88787 37.9168C2.79207 37.9168 2.79207 37.9168 2.69627 37.9168C1.83407 37.821 1.06767 38.3958 0.971873 39.258C0.876073 40.7908 0.780273 42.3236 0.780273 43.9522H2.31307H0.780273C0.780273 44.8144 1.45087 45.4849 2.31307 45.4849C2.40887 45.4849 2.40887 45.4849 2.50467 45.4849C2.50467 45.9639 2.50467 46.5387 2.60047 47.0177C2.50467 47.0177 2.50467 47.0177 2.40887 47.0177C1.54667 47.1135 0.971873 47.8799 1.06767 48.7421C1.25927 50.3707 1.54667 51.9035 1.83407 53.5321C2.02567 54.2985 2.60047 54.7775 3.36687 54.7775C3.46267 54.7775 3.55847 54.7775 3.75006 54.7775C3.84586 54.7775 3.84586 54.7775 3.94166 54.6817C4.03746 55.1607 4.22906 55.6397 4.32486 56.2145C4.22906 56.2145 4.22906 56.2145 4.13326 56.2145C3.27107 56.5019 2.88787 57.3641 3.17527 58.2263C3.75006 59.7591 4.32486 61.1961 4.99546 62.7289C5.28286 63.3037 5.85766 63.5911 6.43246 63.5911C6.62406 63.5911 6.91146 63.4953 7.10306 63.3995C7.19885 63.3995 7.19885 63.3037 7.19885 63.3037C7.48625 63.7827 7.67785 64.1659 7.96525 64.6449C7.86945 64.6449 7.86945 64.6449 7.77365 64.7407C7.00726 65.2197 6.81566 66.1777 7.29465 66.9441C8.15685 68.2853 9.11485 69.6265 10.0728 70.8719C10.3602 71.2551 10.8392 71.4467 11.3182 71.4467C11.7014 71.4467 11.9888 71.3509 12.2762 71.0635L12.372 70.9677C12.7552 71.3509 13.0426 71.7341 13.4258 72.1173L13.33 72.2131C12.7552 72.7879 12.7552 73.8417 13.33 74.4165C14.4796 75.5661 15.725 76.6199 16.9704 77.6736C17.2578 77.8652 17.641 78.0568 17.9284 78.0568C18.4074 78.0568 18.8864 77.8652 19.1738 77.4821L19.2696 77.3863C19.6528 77.6737 20.1318 77.9611 20.515 78.2485L20.4192 78.3443C19.9402 79.1106 20.1318 80.0686 20.8982 80.5476C22.2394 81.4098 23.6764 82.1762 25.1134 82.8468C25.305 82.9426 25.5924 83.0384 25.784 83.0384C26.3588 83.0384 26.9336 82.751 27.221 82.1762C27.221 82.0804 27.221 82.0804 27.3168 81.9846C27.7958 82.1762 28.2748 82.3678 28.7538 82.5594C28.7538 82.6552 28.658 82.6552 28.658 82.751C28.3706 83.6132 28.8496 84.4754 29.616 84.7628C31.1488 85.3376 32.6816 85.7208 34.3102 86.104C34.406 86.104 34.5018 86.104 34.6934 86.104C35.364 86.104 36.0346 85.625 36.2262 84.8586C36.2262 84.7628 36.2262 84.7628 36.2262 84.667C36.7052 84.7628 37.28 84.8586 37.759 84.9544C37.759 85.0502 37.759 85.0502 37.759 85.146C37.6632 86.0082 38.238 86.7746 39.1002 86.8704C40.7288 87.062 42.2616 87.1578 43.8901 87.1578C44.7523 87.1578 45.4229 86.4872 45.4229 85.625C45.4229 85.5292 45.4229 85.5292 45.4229 85.4334C45.9019 85.4334 46.4767 85.4334 46.9557 85.3376C46.9557 85.4334 46.9557 85.4334 46.9557 85.5292C47.0515 86.2956 47.7221 86.9662 48.4885 86.9662C48.5843 86.9662 48.5843 86.9662 48.6801 86.9662C50.3087 86.7746 51.8415 86.4872 53.4701 86.1998C54.3323 86.0082 54.8113 85.146 54.6197 84.2838C54.6197 84.188 54.6197 84.188 54.5239 84.0922C55.0029 83.9964 55.4819 83.8048 56.0567 83.709C56.0567 83.8048 56.0567 83.8048 56.0567 83.9006C56.2483 84.5712 56.9189 84.9544 57.4937 84.9544C57.6853 84.9544 57.8769 84.9544 57.9727 84.8586C59.5055 84.2838 61.0383 83.709 62.4753 83.0384C63.2417 82.6552 63.6249 81.6972 63.2417 80.9308C63.2417 80.835 63.1459 80.835 63.1459 80.835C63.6249 80.5476 64.0081 80.356 64.4871 80.0686C64.4871 80.1644 64.4871 80.1644 64.5829 80.2602C64.8703 80.7392 65.3493 81.0266 65.9241 81.0266C66.2115 81.0266 66.4989 80.9308 66.7863 80.7392C68.1275 79.877 69.4687 78.919 70.7141 77.9611C71.3847 77.3863 71.4805 76.4283 71.0015 75.7577L70.9057 75.6619C71.2889 75.2787 71.6721 74.9913 72.0553 74.6081L72.1511 74.7039C72.4385 74.9913 72.8217 75.1829 73.3007 75.1829C73.6839 75.1829 74.0671 74.9913 74.4503 74.7039C75.5999 73.5543 76.6536 72.4047 77.7074 71.0635C78.2822 70.3929 78.0906 69.4349 77.42 68.8601L77.3242 68.7643C77.6116 68.3811 77.899 67.9021 78.1864 67.5189L78.2822 67.6147C78.5696 67.8063 78.857 67.9021 79.1444 67.9021C79.6234 67.9021 80.1982 67.6147 80.4856 67.1357C81.3478 65.7945 82.1142 64.3575 82.7848 62.9205C83.168 62.1541 82.8806 61.1961 82.0184 60.8129C81.9226 60.8129 81.9226 60.8129 81.8268 60.7171C82.0184 60.2381 82.21 59.7591 82.4016 59.2801C82.4974 59.2801 82.4974 59.3759 82.5932 59.3759C82.7848 59.4717 82.9764 59.4717 83.0722 59.4717C83.7428 59.4717 84.3176 59.0885 84.5092 58.4179C85.084 56.8851 85.4672 55.3523 85.8504 53.7237C86.042 52.8615 85.4672 51.9993 84.7008 51.8077C84.605 51.8077 84.605 51.8077 84.5092 51.8077C84.605 51.3287 84.7008 50.7539 84.7966 50.2749C84.8924 50.2749 84.8924 50.2749 84.9882 50.2749C85.084 50.2749 85.084 50.2749 85.1798 50.2749C85.9462 50.2749 86.6168 49.7001 86.7126 48.8379C86.9042 47.2093 87 45.5807 87 43.8564ZM43.8901 77.5779C25.4008 77.5779 10.2644 62.5373 10.2644 43.9522C10.2644 25.4628 25.305 10.3265 43.8901 10.3265C62.4753 10.3265 77.5158 25.4628 77.5158 43.9522C77.5158 62.4415 62.3795 77.5779 43.8901 77.5779Z" fill="#252525" />
<path d="M43.8903 10.9012C25.6883 10.9012 10.8394 25.7502 10.8394 43.9521C10.8394 62.1541 25.6883 77.003 43.8903 77.003C62.0922 77.003 76.9412 62.1541 76.9412 43.9521C76.9412 25.7502 62.0922 10.9012 43.8903 10.9012ZM31.2447 15.9786L42.2617 41.3656C42.1659 41.4614 42.0701 41.4614 41.9743 41.5572L22.5269 22.014C25.0177 19.5232 27.9875 17.5114 31.2447 15.9786ZM21.9521 22.5888L41.4953 42.1319C41.3995 42.2277 41.3037 42.4193 41.2079 42.5152L15.4377 32.3604C16.9705 28.72 19.1739 25.367 21.9521 22.5888ZM15.1503 33.1268L40.9205 43.2815C40.9205 43.3773 40.8247 43.4731 40.8247 43.6647H13.2343C13.2343 39.8328 14.0007 36.384 15.1503 33.1268ZM13.2343 44.3353H40.9205C40.9205 44.5269 41.0163 44.6227 41.0163 44.8143L15.6293 55.8313C14.0965 52.2867 13.2343 48.4547 13.2343 44.3353ZM15.9167 56.5977L41.3037 45.5807C41.3995 45.6765 41.3995 45.7723 41.4953 45.8681L21.9521 65.3155C19.4613 62.8247 17.4495 59.8549 15.9167 56.5977ZM22.5269 65.8903L42.0701 46.3471C42.1659 46.4429 42.3575 46.5387 42.4533 46.6345L32.2985 72.4047C28.6581 70.8719 25.3051 68.6685 22.5269 65.8903ZM43.5071 74.6081C39.8667 74.6081 36.3221 73.8417 33.0649 72.5963L43.2197 46.8261C43.3155 46.8261 43.4113 46.9219 43.6029 46.9219V74.6081H43.5071ZM43.5071 40.9824C43.3155 40.9824 43.2197 41.0782 43.0281 41.0782L32.0111 15.6912C35.5557 14.1584 39.4835 13.392 43.5071 13.2962V40.9824ZM65.2536 22.014L45.7105 41.5572C45.6147 41.4614 45.423 41.3656 45.3273 41.2698L55.482 15.4996C59.1224 17.0324 62.4754 19.2358 65.2536 22.014ZM44.2735 13.2962C47.9138 13.2962 51.4584 14.0626 54.7156 15.308L44.6567 40.9824C44.5609 40.9824 44.4651 40.8866 44.2735 40.8866V13.2962ZM44.2735 74.6081V46.9219C44.4651 46.9219 44.5609 46.8261 44.7525 46.8261L55.7694 72.2131C52.2248 73.7459 48.3928 74.6081 44.2735 74.6081ZM56.5358 71.9257L45.423 46.5387C45.5188 46.4429 45.6147 46.4429 45.7105 46.3471L65.2536 65.8903C62.7628 68.3811 59.793 70.3929 56.5358 71.9257ZM65.8284 65.3155L46.2852 45.7723C46.381 45.6765 46.4768 45.4849 46.5726 45.3891L72.3428 55.5439C70.81 59.1843 68.6066 62.5373 65.8284 65.3155ZM72.6302 54.7775L46.86 44.7185C46.86 44.6227 46.9558 44.5269 46.9558 44.3353H74.5462C74.5462 48.0715 73.7798 51.5203 72.6302 54.7775ZM74.5462 43.5689H46.86C46.86 43.3773 46.7642 43.2815 46.7642 43.0899L72.1512 32.073C73.684 35.6176 74.5462 39.4496 74.5462 43.5689ZM46.4768 42.4194C46.3811 42.3236 46.381 42.2277 46.2852 42.1319L65.8284 22.5888C68.3192 25.1754 70.331 28.1452 71.8638 31.4024L46.4768 42.4194Z" fill="#252525" />

<animateTransform attributeName="transform" type="rotate" from="0 43.5 43.5" to="360 43.5 43.5" dur="3s" repeatCount="indefinite" /></g></svg>
